HIERARCHY
ROOT hip
{
	OFFSET 0.000000 0.000000 0.000000 
	CHANNELS 6 Xposition Yposition Zposition Xrotation Zrotation Yrotation
	JOINT abdomen
	{
		OFFSET 0.000000 3.402643 0.000000 
		CHANNELS 3 Xrotation Zrotation Yrotation
		JOINT chest
		{
			OFFSET 0.000000 8.438565 -0.680529 
			CHANNELS 3 Xrotation Zrotation Yrotation
			JOINT neck
			{
				OFFSET 0.000000 10.207942 -0.272212 
				CHANNELS 3 Xrotation Zrotation Yrotation
				JOINT head
				{
					OFFSET 0.000000 3.130431 0.000000 
					CHANNELS 3 Xrotation Zrotation Yrotation
					End Site
					{
						OFFSET 0.000000 3.130435 0.000000 
					}
				}
			}
			JOINT lCollar
			{
				OFFSET 3.470700 6.669187 -0.816635 
				CHANNELS 3 Yrotation Zrotation Xrotation
				JOINT lShldr
				{
					OFFSET 3.198488 0.000000 0.000000 
					CHANNELS 3 Zrotation Yrotation Xrotation
					JOINT lForeArm
					{
						OFFSET 10.139888 0.000000 0.000000 
						CHANNELS 3 Yrotation Zrotation Xrotation
						JOINT lHand
						{
							OFFSET 8.370511 0.000000 0.000000 
							CHANNELS 3 Zrotation Yrotation Xrotation
							End Site
							{
								OFFSET 4.083176 0.000000 0.000000 
							}
						}
					}
				}
			}
			JOINT rCollar
			{
				OFFSET -3.470700 6.669187 -0.816635 
				CHANNELS 3 Yrotation Zrotation Xrotation
				JOINT rShldr
				{
					OFFSET -3.198488 0.000000 0.000000 
					CHANNELS 3 Zrotation Yrotation Xrotation
					JOINT rForeArm
					{
						OFFSET -10.139888 0.000000 0.000000 
						CHANNELS 3 Yrotation Zrotation Xrotation
						JOINT rHand
						{
							OFFSET -8.370511 0.000000 0.000000 
							CHANNELS 3 Zrotation Yrotation Xrotation
							End Site
							{
								OFFSET -4.083176 0.000000 0.000000 
							}
						}
					}
				}
			}
		}
	}
	JOINT lThigh
	{
		OFFSET 5.308129 -1.633274 1.361059 
		CHANNELS 3 Xrotation Zrotation Yrotation
		JOINT lShin
		{
			OFFSET -2.041588 -20.007561 0.000000 
			CHANNELS 3 Xrotation Zrotation Yrotation
			JOINT lFoot
			{
				OFFSET 0.000000 -19.190928 -1.224953 
				CHANNELS 3 Xrotation Yrotation Zrotation
				End Site
				{
					OFFSET 0.000000 -2.449906 4.627600 
				}
			}
		}
	}
	JOINT rThigh
	{
		OFFSET -5.308129 -1.633274 1.361059 
		CHANNELS 3 Xrotation Zrotation Yrotation
		JOINT rShin
		{
			OFFSET 2.041588 -20.007561 0.000000 
			CHANNELS 3 Xrotation Zrotation Yrotation
			JOINT rFoot
			{
				OFFSET 0.000000 -19.190928 -1.224953 
				CHANNELS 3 Xrotation Yrotation Zrotation
				End Site
				{
					OFFSET 0.000000 -2.449906 4.627600 
				}
			}
		}
	}
}
MOTION
Frames: 11
Frame Time: 0.016667
0.629821 40.867371 -6.683806 16.874170 -3.130415 -3.022137 61.653828 -4.081697 -0.734735 -0.860553 -2.342719 1.700592 -37.060410 -7.274741 11.489001 -8.321557 -4.923850 10.037316 26.807911 -10.810182 -0.095999 -69.208061 -3.572991 -4.102732 -82.481819 4.425685 63.958950 -35.245571 9.253248 -6.563609 -24.513466 -1.233066 -0.079951 59.007973 16.863098 -18.374762 111.838135 -3.969708 49.818970 18.710852 0.166789 -0.005373 -84.359581 30.545265 -8.022632 65.952827 0.404013 -3.830608 41.403336 5.450265 -17.627834 -62.407425 -31.686630 -4.782497 83.389580 -2.489760 3.390076 7.157279 -9.224829 12.691264 
1.354130 40.483669 -6.003621 16.532753 -3.751872 -3.718949 61.996342 -4.218529 -0.587942 -0.869833 -3.660515 1.692864 -37.579418 -6.899409 13.035339 -8.330231 -5.105313 11.795497 27.383282 -10.144141 -0.051213 -68.401131 -4.754430 -5.617146 -84.150208 4.492873 64.243103 -35.837410 9.387488 -6.729061 -24.443022 0.220231 -0.097831 60.115341 13.621737 -18.694956 111.573784 -3.879710 48.071262 18.974522 0.176046 -0.001430 -84.871033 30.370590 -8.873318 69.467979 0.559668 -3.801375 38.914799 7.373045 -18.545900 -61.973980 -32.475086 -4.967404 84.189003 -2.666016 3.259665 7.838303 -8.826988 12.765571 
1.894120 40.161335 -5.356538 16.361435 -4.276830 -3.976362 62.019886 -4.765012 -0.921285 -0.878293 -4.275481 1.693487 -38.041237 -6.908830 14.344152 -8.499376 -4.576832 13.030297 27.783203 -9.560547 0.001622 -68.079254 -5.799348 -7.841417 -86.856171 4.571787 65.100426 -36.221760 9.416820 -6.857331 -24.168097 1.088904 -0.098173 61.523571 10.815592 -18.699526 110.749458 -3.754158 47.376225 18.359493 0.315090 0.073755 -85.602036 30.028542 -9.861453 72.357986 0.832650 -3.913448 37.370674 7.477684 -18.237059 -61.219479 -32.850838 -4.775219 84.636330 -2.490248 3.242637 7.643281 -8.795025 12.758117 
2.434076 39.839024 -4.709500 16.194849 -4.801377 -4.234164 62.040058 -5.311232 -1.255480 -0.886783 -4.890446 1.694956 -38.488049 -6.895656 15.643158 -8.665758 -4.051251 14.264654 28.182001 -8.976238 0.052541 -67.711311 -6.830070 -10.089194 -89.561424 4.600199 65.969872 -36.614697 9.449529 -6.978539 -23.902929 1.957592 -0.098484 62.920284 8.010190 -18.767284 109.930748 -3.611635 46.689007 17.744820 0.462075 0.158191 -86.317917 29.677732 -10.838565 75.247108 1.115219 -4.021445 35.857769 7.606278 -17.959961 -60.447933 -33.221878 -4.560923 85.072578 -2.323914 3.248244 7.456198 -8.767361 12.750029 
2.817023 39.630867 -4.102886 16.204945 -5.241910 -3.884001 62.065361 -6.011976 -2.003728 -0.708573 -5.330142 1.529549 -39.148151 -7.118082 16.536388 -8.662574 -3.255105 14.966088 28.569469 -8.311399 0.035359 -67.559067 -8.371155 -12.495453 -93.200760 4.690604 67.186478 -37.121296 9.787934 -7.379128 -23.706060 2.625244 -0.107632 64.067169 6.068324 -18.028460 108.207016 -3.698428 47.487568 16.966087 1.031120 0.335092 -86.873993 28.964695 -11.637739 77.264832 1.359401 -3.932660 35.401905 7.076962 -17.661114 -59.370647 -33.727554 -4.425710 85.234993 -2.577724 3.345020 7.530319 -8.335536 12.679148 
3.199950 39.422726 -3.496293 16.210615 -5.682550 -3.542855 62.091194 -6.720765 -2.764127 -0.537811 -5.779623 1.364288 -39.801270 -7.317471 17.440660 -8.649801 -2.463629 15.668841 28.957373 -7.646794 0.018237 -67.349503 -9.911681 -14.916105 -96.838959 4.705899 68.406509 -37.618370 10.119894 -7.770533 -23.519243 3.298723 -0.107834 65.195038 4.113294 -17.340183 106.487366 -3.818179 48.288097 16.179434 1.592942 0.502819 -87.411743 28.251986 -12.430263 79.252693 1.601330 -3.851866 34.921761 6.541984 -17.354662 -58.283138 -34.242748 -4.268068 85.406441 -2.822116 3.468938 7.612865 -7.924934 12.631030 
3.497140 39.310696 -2.920911 16.213549 -5.950655 -2.661574 62.211079 -7.477736 -3.329869 -0.550443 -6.306816 1.365297 -40.556274 -7.367538 18.043459 -8.375739 -1.941464 16.181194 29.598553 -7.094667 -0.008426 -67.185898 -12.468675 -16.681892 -100.763588 4.769649 69.966255 -38.401924 10.601333 -8.368052 -23.245008 4.046308 -0.099142 65.544113 2.541220 -15.856400 104.230011 -3.850185 48.143875 16.269894 1.925751 0.582557 -87.334496 27.547379 -12.652735 80.438072 1.495459 -3.878967 34.005108 6.553032 -17.108980 -57.632584 -35.006958 -3.699586 85.755333 -2.646112 3.471178 8.797213 -6.918657 12.669963 
3.794322 39.198669 -2.345529 16.218027 -6.217731 -1.778331 62.337082 -8.223289 -3.908379 -0.561931 -6.834037 1.356672 -41.302814 -7.416300 18.647490 -8.099592 -1.412407 16.704348 30.230503 -6.552872 -0.033529 -66.933022 -15.029586 -18.481754 -104.691368 4.718789 71.537430 -39.179779 11.076787 -8.971486 -22.961990 4.790152 -0.081457 65.857254 0.973229 -14.382157 101.969437 -3.863767 48.000401 16.361088 2.255565 0.672393 -87.255554 26.845810 -12.851878 81.604088 1.396155 -3.894332 33.046265 6.565858 -16.830776 -56.976772 -35.767616 -3.128608 86.113731 -2.489747 3.458019 9.956644 -5.925786 12.694907 
3.993131 39.144768 -1.820922 16.142853 -6.835093 -0.905998 62.632057 -8.970135 -4.222372 -1.091397 -7.263076 1.524981 -42.064640 -7.393035 19.178738 -7.747900 -0.709266 17.130213 30.775896 -6.084671 -0.050057 -66.926590 -17.668186 -19.159344 -108.816658 4.930265 74.043427 -40.186966 10.874651 -9.139782 -22.760786 5.378953 -0.136307 65.485519 -0.196723 -12.658198 99.490524 -3.786592 45.377594 16.972507 1.834399 0.580169 -86.923729 26.404957 -13.040056 82.355659 1.481489 -3.836166 31.467970 6.296473 -16.497698 -56.843204 -36.502155 -2.865352 86.900444 -2.587756 3.487959 12.221036 -4.411530 12.644273 
4.191929 39.090874 -1.296325 16.047476 -7.451171 -0.020633 62.932919 -9.706521 -4.528945 -1.613939 -7.701747 1.694632 -42.821663 -7.360396 19.699032 -7.388707 -0.018620 17.568359 31.320765 -5.621865 -0.074718 -66.880760 -20.313251 -19.860373 -112.949173 4.952925 76.547974 -41.194149 10.677401 -9.310122 -22.558462 5.967378 -0.191393 65.073662 -1.361694 -10.935633 97.023018 -3.605642 42.749462 17.584656 1.412557 0.488661 -86.612885 25.965651 -13.215514 83.145134 1.583162 -3.792746 29.852486 6.029154 -16.176216 -56.711815 -37.231461 -2.540662 87.689537 -2.656027 3.485115 14.456930 -2.872937 12.532596 
4.278113 39.079849 -0.851534 15.979120 -8.329156 0.857623 63.228100 -10.153925 -4.564578 -2.230276 -7.777946 2.118611 -43.754532 -7.596745 20.154573 -6.847865 1.032579 17.717855 31.595257 -5.431560 -0.066244 -66.899940 -22.772987 -19.828613 -116.765892 4.966268 78.528107 -41.388218 10.436752 -9.182151 -22.465998 6.130213 -0.136672 64.662880 -1.573573 -9.756854 94.752342 -3.464248 40.111851 18.196136 1.116204 0.325905 -86.882286 25.712582 -13.745148 83.834778 1.563174 -3.925400 28.969954 5.917143 -15.863119 -56.909935 -37.672836 -2.778437 88.479080 -2.831656 3.360834 16.956924 -0.702326 11.978180 
